<svg width="43" height="45" viewBox="0 0 43 45" fill="none" xmlns="http://www.w3.org/2000/svg">
<path d="M41.1646 37.6656H34.7996C34.4354 37.6656 34.1404 37.9608 34.1404 38.3248C34.1404 38.6889 34.4354 38.984 34.7996 38.984H40.5054V39.3559L30.9072 41.1786H11.6673L2.06909 39.3559V38.984H4.68999C4.69104 38.984 4.6921 38.9842 4.69307 38.9842C4.69386 38.9842 4.69474 38.984 4.69553 38.984H7.07051C7.0713 38.984 7.072 38.9842 7.07279 38.9842C7.07402 38.9842 7.07534 38.984 7.07657 38.984H14.9794C14.9799 38.984 14.9803 38.9841 14.9808 38.9841C14.9813 38.9841 14.9816 38.984 14.9821 38.984H17.3371C17.3378 38.984 17.3385 38.9842 17.3392 38.9842C17.3399 38.9842 17.3407 38.984 17.3414 38.984H25.2331C25.2339 38.984 25.2346 38.9842 25.2353 38.9842C25.236 38.9842 25.2367 38.984 25.2373 38.984H32.3517C32.7158 38.984 33.0109 38.6889 33.0109 38.3248C33.0109 37.9608 32.7158 37.6656 32.3517 37.6656H28.0999C28.8872 37.1654 29.6218 36.5795 30.2823 35.9194C31.2357 34.9656 32.0183 33.8869 32.6165 32.7206C33.4501 33.0601 34.3327 33.2324 35.2477 33.2324C39.1083 33.2324 42.2491 30.0912 42.2491 26.2302C42.2491 22.3696 39.1083 19.2288 35.2477 19.2288C34.8294 19.2288 34.4149 19.2667 34.0076 19.3397V18.9626C34.0076 18.1189 33.3212 17.4324 32.4775 17.4324H29.3599C28.9958 17.4324 28.7007 17.7276 28.7007 18.0916C28.7007 18.4557 28.9958 18.7508 29.3599 18.7508H32.4775C32.5942 18.7508 32.6892 18.8458 32.6892 18.9626V20.0832H9.88424V18.9626C9.88424 18.8458 9.97925 18.7508 10.0961 18.7508H26.9113C27.2754 18.7508 27.5705 18.4557 27.5705 18.0916C27.5705 17.7276 27.2754 17.4324 26.9113 17.4324H10.0961C9.25231 17.4324 8.56588 18.1189 8.56588 18.9626V26.9237C8.56588 27.918 8.68216 28.9037 8.90874 29.861C7.83586 29.5411 6.5574 29.7925 5.39092 30.5906C5.09042 30.7962 5.01343 31.2064 5.219 31.5069C5.42467 31.8073 5.83494 31.8842 6.13535 31.6787C6.89982 31.1557 7.70209 30.9504 8.36549 31.0833L5.96449 34.6755C5.76217 34.9782 5.84355 35.3876 6.14616 35.5898C6.25866 35.6651 6.38602 35.7011 6.51188 35.7011C6.72466 35.7011 6.93349 35.5983 7.06049 35.4082L9.46219 31.8147C9.71127 32.1844 9.84776 32.6683 9.85418 33.2322C9.85418 33.2324 9.85418 33.2326 9.85418 33.2329C9.85418 33.2341 9.85427 33.2353 9.85427 33.2366C9.86314 34.1074 9.55887 35.0493 8.99769 35.8888C8.67776 36.3676 8.29948 36.7781 7.8711 37.1107C7.57412 37.3433 7.26211 37.5293 6.94245 37.6656H4.86006C4.83624 37.6514 4.81251 37.6371 4.78887 37.6211C3.69138 36.8881 3.62194 34.9924 4.63075 33.3053C4.81761 32.9929 4.71583 32.588 4.40338 32.4012C4.0911 32.2145 3.68619 32.3161 3.49934 32.6286C2.85624 33.704 2.54212 34.9021 2.61489 36.0024C2.6562 36.6267 2.81959 37.1893 3.08854 37.6656H1.40991C1.04578 37.6656 0.750732 37.9607 0.750732 38.3247V39.9015C0.750732 40.2182 0.975908 40.49 1.28695 40.5491L10.9804 42.3899V44.3408C10.9804 44.7048 11.2755 44.9999 11.6396 44.9999H30.934C31.2982 44.9999 31.5932 44.7048 31.5932 44.3408V42.3901L41.2876 40.5491C41.5986 40.49 41.8238 40.2181 41.8238 39.9015V38.3247C41.8238 37.9608 41.5286 37.6656 41.1646 37.6656ZM34.0075 26.9236V23.8049H34.0076C34.3895 23.6088 34.812 23.5047 35.2477 23.5047C36.7506 23.5047 37.9732 24.7274 37.9732 26.2302C37.9732 27.733 36.7506 28.9557 35.2477 28.9557C34.7688 28.9557 34.3078 28.8313 33.8983 28.5968C33.9702 28.0465 34.0075 27.4879 34.0075 26.9236ZM33.648 29.9448C34.1492 30.1612 34.6906 30.2741 35.2477 30.2741C37.4775 30.2741 39.2916 28.4601 39.2916 26.2303C39.2916 24.0005 37.4775 22.1864 35.2477 22.1864C34.8223 22.1864 34.405 22.253 34.0076 22.381V20.7492C34.0076 20.7469 34.0079 20.7447 34.0079 20.7424C34.0079 20.7401 34.0076 20.7379 34.0076 20.7356V20.6839C34.4122 20.5935 34.8276 20.5472 35.2478 20.5472C38.3814 20.5472 40.9308 23.0965 40.9308 26.2302C40.9308 29.3643 38.3814 31.9141 35.2478 31.9141C34.521 31.9141 33.8205 31.7786 33.1575 31.5152C33.355 31.0042 33.5184 30.4796 33.648 29.9448ZM9.88424 21.4016H32.6892V23.4306C32.6892 23.4313 32.6892 23.4321 32.6892 23.4328V26.9237C32.6892 29.9694 31.5033 32.8332 29.3502 34.9872C28.1572 36.1793 26.6961 37.1032 25.1197 37.6656H17.4556C17.243 37.59 17.0314 37.5086 16.8225 37.4196C17.3062 36.6591 17.4905 35.8131 17.3313 35.0068C17.3311 35.0057 17.331 35.0048 17.3309 35.0037C17.3306 35.0025 17.3302 35.0012 17.33 35C17.1198 33.951 16.3787 33.088 15.2424 32.5696C14.178 32.084 12.8772 31.9583 11.5793 32.216C11.4613 32.2395 11.3443 32.2663 11.2283 32.2957C10.3484 30.6509 9.88424 28.8049 9.88424 26.9237V21.4016ZM10.0939 36.6213C10.7042 35.7083 11.0724 34.6845 11.1547 33.6924C11.3758 33.6178 11.6033 33.5554 11.8363 33.5089C13.5135 33.176 15.1307 33.6807 15.7755 34.6408L11.5392 35.4829C11.1821 35.5539 10.9502 35.9008 11.0211 36.2579C11.0835 36.5716 11.3589 36.7887 11.667 36.7887C11.7096 36.7887 11.7529 36.7845 11.7962 36.7758L16.0352 35.9331C15.9506 36.3668 15.7089 36.8015 15.3218 37.2009C15.3207 37.2019 15.3197 37.2031 15.3188 37.2041C15.1573 37.3698 14.9748 37.5241 14.776 37.6655H9.2335C9.54946 37.3539 9.83766 37.0049 10.0939 36.6213ZM30.2749 43.6818H12.2987V42.497H30.2749V43.6818Z" fill="#BC9A6C"/>
<path d="M23.0034 13.1791C22.9912 13.1869 22.9812 13.1931 22.974 13.1977C22.9807 13.1933 22.9906 13.1871 23.0034 13.1791Z" fill="#BC9A6C"/>
<path d="M22.9741 13.1972C22.9562 13.2084 22.9585 13.207 22.9741 13.1972V13.1972Z" fill="#BC9A6C"/>
<path d="M24.4299 7.19543C25.3176 6.35168 25.8288 5.18247 25.8288 3.92739C25.8288 2.36514 25.038 0.934895 23.7133 0.10134C23.4052 -0.0925465 22.9981 9.01893e-05 22.8043 0.308235C22.6105 0.616379 22.7031 1.02331 23.0112 1.2172C23.9501 1.80791 24.5106 2.82103 24.5106 3.92731C24.5106 5.03359 23.9501 6.0467 23.0112 6.63741C22.6083 6.89019 22.6083 7.49962 23.0112 7.75327C23.9501 8.34399 24.5106 9.3571 24.5106 10.4634C24.5106 11.5697 23.9502 12.583 23.0113 13.1737C23.0079 13.1758 23.0057 13.1772 23.0027 13.1791C23.0055 13.1774 23.0082 13.1757 23.0113 13.1738C22.7032 13.3676 22.6105 13.7746 22.8044 14.0827C22.9297 14.2819 23.1439 14.3909 23.3629 14.3909C23.4829 14.3909 23.6043 14.3582 23.7133 14.2896C25.038 13.4561 25.8288 12.0258 25.8288 10.4636C25.8288 9.20839 25.3175 8.03918 24.4299 7.19543ZM23.3551 12.9573C23.3707 12.9475 23.3726 12.9463 23.3551 12.9573V12.9573ZM23.2693 13.0114C23.2837 13.0023 23.2971 12.9939 23.3091 12.9864C23.2976 12.9936 23.2847 13.0017 23.2693 13.0114Z" fill="#BC9A6C"/>
<path d="M28.3523 6.6376C28.0443 6.44371 27.6372 6.53626 27.4434 6.8445C27.2495 7.15255 27.3421 7.55957 27.6503 7.75346C28.589 8.34417 29.1495 9.35738 29.1495 10.4637C29.1496 11.5698 28.5891 12.583 27.6504 13.1737C27.3422 13.3676 27.2496 13.7745 27.4435 14.0826C27.5687 14.2818 27.7829 14.3909 28.0019 14.3909C28.1219 14.3909 28.2434 14.3581 28.3523 14.2895C29.6769 13.4561 30.4678 12.0257 30.4678 10.4636C30.4678 8.9014 29.6769 7.47107 28.3523 6.6376Z" fill="#BC9A6C"/>
<path d="M18.6944 6.63752C18.3863 6.44363 17.9791 6.53627 17.7854 6.84441C17.5915 7.15256 17.6842 7.55949 17.9923 7.75338C18.9312 8.34409 19.4916 9.35721 19.4916 10.4635C19.4917 11.5698 18.9313 12.583 17.9924 13.1737C17.6843 13.3676 17.5916 13.7745 17.7855 14.0826C17.9108 14.2818 18.1249 14.3909 18.344 14.3909C18.4639 14.3909 18.5854 14.3581 18.6944 14.2895C20.0191 13.4561 20.8099 12.0257 20.8099 10.4636C20.8099 8.90132 20.0191 7.47107 18.6944 6.63752Z" fill="#BC9A6C"/>
</svg>
